<?xml version="1.0" encoding="UTF-8"?>
<svg version="1.1" xmlns="http://www.w3.org/2000/svg" width="261" height="231">
<path d="M0 0 C1.25937881 -0.00043808 2.51875763 -0.00087616 3.81629944 -0.00132751 C7.24766516 -0.00218358 10.67871233 0.01537845 14.11000443 0.03639436 C17.70409758 0.05522654 21.2981991 0.05691673 24.89233398 0.06047058 C31.68846165 0.06977193 38.48444347 0.09435961 45.28050709 0.12451905 C53.02175806 0.15812279 60.76301623 0.17456404 68.50432205 0.18960536 C84.41963231 0.22091105 100.3347973 0.27363406 116.25 0.34057617 C115.77414551 2.42786331 115.29670995 4.51479004 114.81860352 6.6015625 C114.55290054 7.76375809 114.28719757 8.92595367 114.01344299 10.12336731 C113.21616109 13.48317599 112.29019279 16.75571255 111.1875 20.02807617 C110.70603516 21.48793945 110.70603516 21.48793945 110.21484375 22.97729492 C109.25 25.34057617 109.25 25.34057617 107.25 27.34057617 C96.70212346 29.26294179 85.34251349 28.49042006 74.66337395 28.5092411 C71.40569262 28.51648903 68.14815485 28.53220945 64.89051819 28.55058289 C55.63869999 28.60271256 46.38697226 28.65112296 37.13500977 28.66650391 C31.45293866 28.67656402 25.77124788 28.7058145 20.08932686 28.74782372 C17.92956982 28.76014208 15.7697592 28.76525346 13.60996819 28.76302528 C10.60145867 28.76068154 7.59405384 28.78275994 4.58569336 28.81054688 C3.69477493 28.80394547 2.80385651 28.79734406 1.88594055 28.7905426 C-3.06141053 28.83854991 -3.06141053 28.83854991 -7.28155518 31.25233459 C-8.81863355 33.43817836 -9.53171527 34.6852511 -9.75 37.34057617 C-9.31754374 39.74850594 -9.31754374 39.74850594 -8.45703125 42.27026367 C-8.00904175 43.7012439 -8.00904175 43.7012439 -7.55200195 45.16113281 C-7.22546631 46.16909912 -6.89893066 47.17706543 -6.5625 48.21557617 C-5.90502824 50.29461728 -5.24877468 52.37404404 -4.59375 54.45385742 C-4.11421875 55.96713623 -4.11421875 55.96713623 -3.625 57.51098633 C-2.19474679 62.13616341 -0.97007887 66.81090846 0.23046875 71.50073242 C1.5867755 75.27864432 2.42709709 77.38084183 5.25 80.34057617 C9.51750048 81.27855389 13.7547948 81.17755983 18.109375 81.14526367 C19.36888977 81.15897003 20.62840454 81.17267639 21.92608643 81.1867981 C25.26727806 81.21784968 28.60650394 81.22321295 31.94769287 81.21612549 C35.35982615 81.2152122 38.77161701 81.24807608 42.18359375 81.27807617 C48.87260281 81.33002833 55.5608002 81.34499941 62.25 81.34057617 C63.24 78.04057617 64.23 74.74057617 65.25 71.34057617 C51.39 71.01057617 37.53 70.68057617 23.25 70.34057617 C24.05438902 64.70985301 25.11195237 59.64633641 26.625 54.21557617 C26.93824219 53.03801758 26.93824219 53.03801758 27.2578125 51.83666992 C27.46921875 51.07225586 27.680625 50.3078418 27.8984375 49.52026367 C28.08583496 48.83689941 28.27323242 48.15353516 28.46630859 47.44946289 C29.48994265 44.69489874 30.4242643 42.67529767 32.25 40.34057617 C35.30619812 39.73930359 35.30619812 39.73930359 39.1081543 39.77294922 C39.80109589 39.77221909 40.49403748 39.77148895 41.20797729 39.77073669 C43.49752199 39.7742192 45.78502978 39.8131059 48.07421875 39.85229492 C49.66175729 39.86162083 51.24931022 39.86873799 52.83686829 39.87373352 C57.01461543 39.89282122 61.19149289 39.94193611 65.36889648 39.99725342 C69.63187901 40.0484084 73.89500212 40.07123947 78.15820312 40.09643555 C86.52253446 40.15005419 94.88615904 40.23538713 103.25 40.34057617 C102.19075461 48.0225977 102.19075461 48.0225977 101.0078125 51.45776367 C100.62338989 52.59193726 100.62338989 52.59193726 100.23120117 53.74902344 C99.94865479 54.56298584 99.6661084 55.37694824 99.375 56.21557617 C98.74808695 58.05521183 98.12183376 59.89507243 97.49609375 61.73510742 C97.14530762 62.76200684 96.79452148 63.78890625 96.43310547 64.84692383 C95.0729699 68.86333736 93.73964353 72.88815652 92.41015625 76.91479492 C91.91460526 78.41302258 91.41899961 79.91123216 90.92333984 81.40942383 C90.18212127 83.64996269 89.44157256 85.89070884 88.70343018 88.13226318 C88.00696047 90.24562542 87.30662537 92.35767132 86.60546875 94.46948242 C86.19965576 95.69739502 85.79384277 96.92530762 85.37573242 98.19042969 C84.47649422 100.70677551 83.52180326 102.99831726 82.25 105.34057617 C81.59 105.34057617 80.93 105.34057617 80.25 105.34057617 C80.25 106.00057617 80.25 106.66057617 80.25 107.34057617 C75.65611389 109.99711968 72.31203227 110.72499243 67.02636719 110.76049805 C65.98113136 110.77320236 65.98113136 110.77320236 64.91477966 110.78616333 C62.62528913 110.80944207 60.33647464 110.81055743 58.046875 110.80932617 C56.442726 110.81643537 54.83857951 110.82413547 53.23443604 110.83239746 C49.87545709 110.84582285 46.51671306 110.84742078 43.15771484 110.84155273 C38.87618842 110.83567082 34.59580153 110.86619345 30.31449509 110.90666962 C27.00107874 110.93266519 23.68793204 110.93541315 20.3744278 110.93177795 C18.79732663 110.93345942 17.22021167 110.94300721 15.64321136 110.96092224 C6.49863801 111.05334936 -0.89818838 110.60314647 -8.75 105.34057617 C-10.235 104.35057617 -10.235 104.35057617 -11.75 103.34057617 C-11.75 102.68057617 -11.75 102.02057617 -11.75 101.34057617 C-12.41 101.34057617 -13.07 101.34057617 -13.75 101.34057617 C-13.75 100.68057617 -13.75 100.02057617 -13.75 99.34057617 C-15.235 98.84557617 -15.235 98.84557617 -16.75 98.34057617 C-23.3254434 90.88103955 -25.33262426 80.49961205 -27.93945312 71.18334961 C-29.36264192 66.1919007 -30.90821143 61.23783247 -32.4375 56.27807617 C-34.16212973 50.68069618 -35.85550284 45.07500398 -37.4609375 39.44213867 C-37.71020996 38.57282715 -37.95948242 37.70351562 -38.21630859 36.80786133 C-39.88423476 29.09694558 -36.86975277 22.29109513 -33.75 15.34057617 C-33.09 15.34057617 -32.43 15.34057617 -31.75 15.34057617 C-31.50507813 14.5903418 -31.26015625 13.84010742 -31.0078125 13.06713867 C-29.5953776 10.0054009 -28.28589052 8.74601179 -25.625 6.71557617 C-24.90054687 6.14581055 -24.17609375 5.57604492 -23.4296875 4.98901367 C-15.67012455 0.21563821 -8.91690904 -0.08167951 0 0 Z " fill="#096DCC" transform="translate(48.75,73.659423828125)"/>
<path d="M0 0 C1.05833542 0.00424484 2.11667084 0.00848969 3.20707703 0.01286316 C6.57971887 0.02962513 9.9517582 0.06727363 13.32421875 0.10546875 C15.61392365 0.12051876 17.90363793 0.13420661 20.19335938 0.14648438 C25.79968395 0.17952052 31.40565829 0.22969558 37.01171875 0.29296875 C34.98511932 9.7939914 34.98511932 9.7939914 33.5390625 13.85546875 C33.27931641 14.58894531 33.01957031 15.32242188 32.75195312 16.078125 C32.48705078 16.80902344 32.22214844 17.53992188 31.94921875 18.29296875 C31.68044922 19.05480469 31.41167969 19.81664063 31.13476562 20.6015625 C29.15014411 26.15454339 29.15014411 26.15454339 28.01171875 27.29296875 C26.49839269 27.42578875 24.97947811 27.49626844 23.4609375 27.5390625 C22.53474609 27.57193359 21.60855469 27.60480469 20.65429688 27.63867188 C18.69607027 27.69950244 16.73773172 27.75683729 14.77929688 27.81054688 C13.38420898 27.86178711 13.38420898 27.86178711 11.9609375 27.9140625 C11.10846436 27.93911865 10.25599121 27.9641748 9.37768555 27.98999023 C6.77691154 28.32303745 5.1846177 28.82586544 3.01171875 30.29296875 C1.88134081 32.00418576 1.88134081 32.00418576 1.1640625 34.18359375 C0.83390137 35.08142578 0.50374023 35.97925781 0.16357422 36.90429688 C-2.4491626 44.59077144 -4.95084444 52.31117302 -7.42578125 60.04296875 C-8.54672825 63.5386508 -9.67017282 67.03351231 -10.796875 70.52734375 C-11.06889236 71.37122147 -11.34090973 72.21509918 -11.62117004 73.08454895 C-13.61301007 79.22619645 -15.75272427 85.29971615 -17.95385742 91.36962891 C-19.26796977 95.08338422 -20.36763384 98.81086687 -21.42578125 102.60546875 C-23.50426721 109.88852365 -25.93718605 117.00158383 -28.50390625 124.125 C-30.41931967 129.45239985 -32.16376088 134.83403095 -33.91015625 140.21875 C-35.74108859 145.43956069 -37.29534989 148.16434785 -41.98828125 151.29296875 C-48.64560577 154.1258728 -55.85941787 153.69055776 -62.98828125 153.29296875 C-63.64828125 152.96296875 -64.30828125 152.63296875 -64.98828125 152.29296875 C-64.42694085 147.63852127 -63.52717702 143.46729409 -61.98828125 139.04296875 C-61.5399302 137.73322153 -61.09205513 136.42331133 -60.64453125 135.11328125 C-60.25974609 133.99614746 -60.25974609 133.99614746 -59.8671875 132.85644531 C-53.08552733 113.09227098 -53.08552733 113.09227098 -46.99853516 93.10766602 C-43.75302703 81.85808736 -40.01065427 70.75334836 -36.39257812 59.61914062 C-34.93501433 55.13184963 -33.48462708 50.64225432 -32.03515625 46.15234375 C-31.29962177 43.87481386 -30.56403239 41.59730171 -29.82843018 39.3197937 C-29.35890114 37.86598482 -28.88945667 36.41214862 -28.42010498 34.95828247 C-26.94853679 30.40130727 -25.47069042 25.84642952 -23.98828125 21.29296875 C-23.6128418 20.13458496 -23.23740234 18.97620117 -22.85058594 17.78271484 C-22.32706543 16.18484131 -22.32706543 16.18484131 -21.79296875 14.5546875 C-21.49116699 13.63002686 -21.18936523 12.70536621 -20.87841797 11.75268555 C-20.0603429 9.49209688 -19.11438406 7.41409526 -17.98828125 5.29296875 C-17.32828125 5.29296875 -16.66828125 5.29296875 -15.98828125 5.29296875 C-15.98828125 4.63296875 -15.98828125 3.97296875 -15.98828125 3.29296875 C-11.33489451 -0.8303567 -5.84532916 -0.0883753 0 0 Z " fill="#076BCB" transform="translate(205.98828125,31.70703125)"/>
<path d="M0 0 C3.38920653 2.25947102 5.07529967 3.73443211 6.1640625 7.7265625 C7.0674375 12.88111399 6.56606066 16.54893362 3.91796875 21.0859375 C1.80676152 23.80308033 -0.10812834 24.74480872 -3.375 25.75 C-8.03023053 26.307896 -12.22230551 26.05705249 -16.375 23.75 C-19.31756138 21.29786552 -20.93656443 19.58631123 -21.375 15.75 C-21.69446556 9.89313132 -21.32044468 6.00922608 -17.4375 1.5 C-12.54977674 -2.64715913 -5.70956848 -2.11465499 0 0 Z " fill="#0C6CCB" transform="translate(85.375,198.25)"/>
<path d="M0 0 C3.64440522 3.07749774 6.47427804 6.07235281 7.75 10.75 C8.16690849 16.16981036 7.08086726 19.72513092 3.5625 23.875 C-0.43137919 27.18699738 -3.80563067 27.29164294 -8.78515625 27.2109375 C-13.32254957 26.7788048 -15.39142869 24.69081067 -18.3125 21.375 C-20.46969217 17.06061565 -20.84026553 13.73604208 -20 9 C-17.41352963 3.82705926 -14.42320254 1.36928102 -9.125 -0.75 C-5.82162443 -1.13863242 -3.23363385 -0.79422586 0 0 Z " fill="#0C6DCA" transform="translate(151,197)"/>
<path d="M0 0 C24.75 0.33 49.5 0.66 75 1 C75 1.66 75 2.32 75 3 C65.51652748 3.02313912 56.03306464 3.04092312 46.54957008 3.05181217 C42.14631785 3.05703755 37.74308489 3.06412897 33.33984375 3.07543945 C29.09290756 3.08628054 24.84598994 3.09227944 20.59904099 3.09487724 C18.97627851 3.09672928 17.35351708 3.10034568 15.73076248 3.10573006 C13.46322661 3.11295668 11.19576813 3.11399025 8.92822266 3.11352539 C7.63582672 3.115746 6.34343079 3.11796661 5.01187134 3.12025452 C2 3 2 3 0 2 C0 1.34 0 0.68 0 0 Z " fill="#2F73B8" transform="translate(48,181)"/>
<path d="M0 0 C0.66 0.99 1.32 1.98 2 3 C1.34 3 0.68 3 0 3 C-0.33 6.3 -0.66 9.6 -1 13 C5.6 13 12.2 13 19 13 C15.88468585 16.11531415 12.82585232 15.96848599 8.51953125 16.1328125 C7.29621094 16.13023437 6.07289063 16.12765625 4.8125 16.125 C3.58144531 16.12757813 2.35039062 16.13015625 1.08203125 16.1328125 C-2 16 -2 16 -4 15 C-3.43179252 9.54520815 -2.05362055 5.08940744 0 0 Z " fill="#4180C8" transform="translate(145,169)"/>
<path d="M0 0 C1.23364032 3.70092097 0.59950089 4.90298972 -0.65234375 8.54296875 C-1.01650391 9.61611328 -1.38066406 10.68925781 -1.75585938 11.79492188 C-2.14580078 12.91447266 -2.53574219 14.03402344 -2.9375 15.1875 C-3.51661133 16.88422852 -3.51661133 16.88422852 -4.10742188 18.61523438 C-5.06362336 21.41300909 -6.0281007 24.20764759 -7 27 C-7.33 27 -7.66 27 -8 27 C-8.02690844 24.37493198 -8.04679404 21.75013827 -8.0625 19.125 C-8.07087891 18.37863281 -8.07925781 17.63226563 -8.08789062 16.86328125 C-8.11328125 11.2265625 -8.11328125 11.2265625 -7 9 C-6.01 8.67 -5.02 8.34 -4 8 C-3.29508733 5.67793475 -2.62787571 3.34406932 -2 1 C-1.34 0.67 -0.68 0.34 0 0 Z " fill="#2E78C9" transform="translate(200,82)"/>
<path d="M0 0 C15.84 0 31.68 0 48 0 C47.34 2.97 46.68 5.94 46 9 C45.67 9 45.34 9 45 9 C45 6.69 45 4.38 45 2 C30.15 1.67 15.3 1.34 0 1 C0 0.67 0 0.34 0 0 Z " fill="#4F7BB6" transform="translate(195,32)"/>
<path d="M0 0 C2 3 2 3 1.375 6.9375 C-0.07763314 12.72891897 -2.03602872 18.36549987 -4 24 C-4.33 24 -4.66 24 -5 24 C-5.05422947 22.5629191 -5.09289723 21.12524538 -5.125 19.6875 C-5.14820313 18.88699219 -5.17140625 18.08648437 -5.1953125 17.26171875 C-5 15 -5 15 -3 12 C-2.40260055 9.95294775 -1.86590017 7.88766892 -1.375 5.8125 C-1.11460937 4.72582031 -0.85421875 3.63914063 -0.5859375 2.51953125 C-0.39257812 1.68808594 -0.19921875 0.85664063 0 0 Z " fill="#3A7DC7" transform="translate(138,149)"/>
<path d="M0 0 C0.66 0.99 1.32 1.98 2 3 C1.67 3.66 1.34 4.32 1 5 C6.61 5 12.22 5 18 5 C18.33 5.66 18.66 6.32 19 7 C12.4 7 5.8 7 -1 7 C-0.67 4.69 -0.34 2.38 0 0 Z " fill="#3172B6" transform="translate(73,137)"/>
<path d="M0 0 C1.24497077 3.73491232 0.55443416 4.96691291 -0.75 8.625 C-1.12125 9.68460938 -1.4925 10.74421875 -1.875 11.8359375 C-2.24625 12.88007813 -2.6175 13.92421875 -3 15 C-3.58773953 16.7485251 -4.1716738 18.49833891 -4.75 20.25 C-5.1625 21.4875 -5.575 22.725 -6 24 C-6.96070434 21.11788698 -7.10581883 19.30149956 -7.0625 16.3125 C-7.05347656 15.50425781 -7.04445312 14.69601563 -7.03515625 13.86328125 C-7.02355469 13.24839844 -7.01195312 12.63351563 -7 12 C-6.01 12 -5.02 12 -4 12 C-3.81824219 11.07767578 -3.81824219 11.07767578 -3.6328125 10.13671875 C-3.38144531 8.92435547 -3.38144531 8.92435547 -3.125 7.6875 C-2.96257812 6.88699219 -2.80015625 6.08648437 -2.6328125 5.26171875 C-2 3 -2 3 0 0 Z " fill="#518BC9" transform="translate(147,127)"/>
<path d="M0 0 C0.66 0.33 1.32 0.66 2 1 C-0.75 5.875 -0.75 5.875 -3 7 C-3 8.32 -3 9.64 -3 11 C-3.99 11 -4.98 11 -6 11 C-6 12.98 -6 14.96 -6 17 C-8 14 -8 14 -7.75 11.0625 C-7.09911834 8.40473321 -6.35855538 6.35482933 -5 4 C-4.34 4 -3.68 4 -3 4 C-3 3.34 -3 2.68 -3 2 C-2.01 1.34 -1.02 0.68 0 0 Z " fill="#3976C5" transform="translate(193,33)"/>
<path d="M0 0 C1.12018319 3.36054957 0.90181274 4.01723271 -0.21484375 7.23046875 C-0.48876953 8.03291016 -0.76269531 8.83535156 -1.04492188 9.66210938 C-1.48674805 10.91217773 -1.48674805 10.91217773 -1.9375 12.1875 C-2.22818359 13.03248047 -2.51886719 13.87746094 -2.81835938 14.74804688 C-3.53757537 16.83495229 -4.2650343 18.91859994 -5 21 C-5.33 21 -5.66 21 -6 21 C-6.2396943 15.36718401 -5.38529821 10.45461169 -4 5 C-3.34 5 -2.68 5 -2 5 C-2 4.01 -2 3.02 -2 2 C-1.34 2 -0.68 2 0 2 C0 1.34 0 0.68 0 0 Z " fill="#5D93CF" transform="translate(185,128)"/>
<path d="M0 0 C0.66 0.33 1.32 0.66 2 1 C0.83348574 6.92863717 -0.75519358 12.38798394 -3 18 C-3.33 18 -3.66 18 -4 18 C-3.67 14.7 -3.34 11.4 -3 8 C-3.66 7.67 -4.32 7.34 -5 7 C-4.34 6.34 -3.68 5.68 -3 5 C-2.34 5.33 -1.68 5.66 -1 6 C-0.67 4.02 -0.34 2.04 0 0 Z " fill="#3373C4" transform="translate(190,108)"/>
<path d="M0 0 C6.6 0 13.2 0 20 0 C19.34 2.97 18.68 5.94 18 9 C17.67 9 17.34 9 17 9 C16.67 6.69 16.34 4.38 16 2 C10.39 2 4.78 2 -1 2 C-0.67 1.34 -0.34 0.68 0 0 Z " fill="#3A6EB0" transform="translate(145,74)"/>
<path d="M0 0 C2.97 0.495 2.97 0.495 6 1 C6.33 1.99 6.66 2.98 7 4 C9.97 4 12.94 4 16 4 C16 4.66 16 5.32 16 6 C6.3597561 6.56707317 6.3597561 6.56707317 2 3 C1.34 2.01 0.68 1.02 0 0 Z " fill="#417ABB" transform="translate(133,218)"/>
<path d="M0 0 C0.99 0.33 1.98 0.66 3 1 C4.20539165 5.94210576 3.79432587 9.24503645 2 14 C0.375 15.9375 0.375 15.9375 -1 17 C-0.83628906 16.30519531 -0.67257813 15.61039063 -0.50390625 14.89453125 C0.04095996 11.7647184 0.09738483 8.86201917 0.0625 5.6875 C0.05347656 4.61886719 0.04445312 3.55023438 0.03515625 2.44921875 C0.02355469 1.64097656 0.01195312 0.83273438 0 0 Z " fill="#397AC5" transform="translate(155,204)"/>
<path d="M0 0 C0.66 0.99 1.32 1.98 2 3 C1.34 3 0.68 3 0 3 C0 6.3 0 9.6 0 13 C0.66 13.33 1.32 13.66 2 14 C1.67 14.66 1.34 15.32 1 16 C0.01 15.67 -0.98 15.34 -2 15 C-2 15.66 -2 16.32 -2 17 C-2.99 17 -3.98 17 -5 17 C-4.80664062 16.35933594 -4.61328125 15.71867188 -4.4140625 15.05859375 C-2.9059252 10.04889015 -1.42282214 5.03460143 0 0 Z " fill="#3F7FC8" transform="translate(158,128)"/>
<path d="M0 0 C0.89728204 2.95770748 1.01218102 5.13966196 0.5625 8.1875 C-0.03900369 12.82987464 -0.07426464 17.32132799 0 22 C-2.6481271 18.02780935 -3.08669441 14.73929438 -3 10 C-2.25552688 6.56397023 -1.21783984 3.29573606 0 0 Z " fill="#6998CE" transform="translate(13,93)"/>
<path d="M0 0 C2.4375 0.75 2.4375 0.75 4.4375 1.75 C4.4375 2.41 4.4375 3.07 4.4375 3.75 C2.4375 5.75 2.4375 5.75 -1.1875 5.875 C-2.30125 5.83375 -3.415 5.7925 -4.5625 5.75 C-4.8925 4.76 -5.2225 3.77 -5.5625 2.75 C-3.69692219 0.29529235 -3.16506129 -0.30878647 0 0 Z " fill="#016DCF" transform="translate(144.5625,216.25)"/>
<path d="M0 0 C1.65 0.33 3.3 0.66 5 1 C5 1.66 5 2.32 5 3 C4.01 3.33 3.02 3.66 2 4 C2 5.98 2 7.96 2 10 C0.68 10.33 -0.64 10.66 -2 11 C-2.28571429 3.57142857 -2.28571429 3.57142857 0 0 Z " fill="#2D76C5" transform="translate(80,115)"/>
<path d="M0 0 C1.60875 0.2784375 1.60875 0.2784375 3.25 0.5625 C6.40391546 0.9304568 8.09818492 1.04465343 11 0 C11 0.66 11 1.32 11 2 C10.34 2 9.68 2 9 2 C9 2.66 9 3.32 9 4 C7.02 4.66 5.04 5.32 3 6 C2.67 5.01 2.34 4.02 2 3 C1.34 2.67 0.68 2.34 0 2 C0 1.34 0 0.68 0 0 Z " fill="#2775C3" transform="translate(120,177)"/>
<path d="M0 0 C0.33 0 0.66 0 1 0 C1.042721 1.66611905 1.04063832 3.33382885 1 5 C0 6 0 6 -2.72265625 6.09765625 C-4.37587891 6.08025391 -4.37587891 6.08025391 -6.0625 6.0625 C-7.71958984 6.04896484 -7.71958984 6.04896484 -9.41015625 6.03515625 C-10.26480469 6.02355469 -11.11945313 6.01195313 -12 6 C-12.33 5.34 -12.66 4.68 -13 4 C-11.01432292 4.06510417 -9.02864583 4.13020833 -7.04296875 4.1953125 C-3.87379951 3.89233265 -2.18569694 2.18569694 0 0 Z " fill="#2065BB" transform="translate(156,95)"/>
<path d="M0 0 C1.32 1.32 2.64 2.64 4 4 C3.01 5.485 3.01 5.485 2 7 C1.61500109 8.65549531 1.27206865 10.3222433 1 12 C0.34 11.67 -0.32 11.34 -1 11 C-1.0270043 9.54176788 -1.04639787 8.08339325 -1.0625 6.625 C-1.07410156 5.81289062 -1.08570313 5.00078125 -1.09765625 4.1640625 C-1 2 -1 2 0 0 Z " fill="#3C7ECC" transform="translate(132,204)"/>
<path d="M0 0 C0.99 0.33 1.98 0.66 3 1 C3.33 3.31 3.66 5.62 4 8 C5.32 7.34 6.64 6.68 8 6 C6.125 11.75 6.125 11.75 5 14 C1.87680501 9.59913433 0.96396425 5.20540698 0 0 Z " fill="#528ED0" transform="translate(24,153)"/>
<path d="M0 0 C1.28497537 3.85492611 0.4052209 5.40346836 -0.9375 9.1875 C-1.31777344 10.27417969 -1.69804687 11.36085938 -2.08984375 12.48046875 C-2.39019531 13.31191406 -2.69054687 14.14335938 -3 15 C-5 12 -5 12 -4.609375 9.3359375 C-4.32578125 8.35882813 -4.0421875 7.38171875 -3.75 6.375 C-3.34007812 4.90160156 -3.34007812 4.90160156 -2.921875 3.3984375 C-2 1 -2 1 0 0 Z " fill="#508ECC" transform="translate(200,82)"/>
<path d="M0 0 C0 0.99 0 1.98 0 3 C0.309375 4.4540625 0.309375 4.4540625 0.625 5.9375 C1.02213128 9.18073883 0.75012392 10.32333988 -1 13 C-1.66 13 -2.32 13 -3 13 C-3.17791204 8.46324303 -3.0461125 5.092225 -1 1 C-0.67 0.67 -0.34 0.34 0 0 Z " fill="#4D86CC" transform="translate(67,201)"/>
<path d="M0 0 C0.66 0 1.32 0 2 0 C2.33 2.64 2.66 5.28 3 8 C1.68 8.33 0.36 8.66 -1 9 C-1.09765625 2.84765625 -1.09765625 2.84765625 -1 1 C-0.67 0.67 -0.34 0.34 0 0 Z " fill="#0A67C0" transform="translate(75,133)"/>
<path d="M0 0 C0.33 0 0.66 0 1 0 C1.16682272 4.92127034 1.24828052 8.50343896 -1 13 C-1.66 13 -2.32 13 -3 13 C-2.45144652 8.428721 -1.58255197 4.32564205 0 0 Z " fill="#4D88CA" transform="translate(184,47)"/>
<path d="M0 0 C0.66 0.66 1.32 1.32 2 2 C0.25 4.0625 0.25 4.0625 -2 6 C-4.25 5.75 -4.25 5.75 -6 5 C-6 4.01 -6 3.02 -6 2 C-4.02 2 -2.04 2 0 2 C0 1.34 0 0.68 0 0 Z " fill="#2B74C0" transform="translate(87,217)"/>
<path d="M0 0 C3.46264391 1.15421464 4.28784522 1.83251366 6 5 C5.6875 8.25 5.6875 8.25 5 11 C3 8 3 8 3 4 C2.34 4 1.68 4 1 4 C0.67 2.68 0.34 1.36 0 0 Z " fill="#4681C7" transform="translate(85,199)"/>
<path d="M0 0 C0.66 0 1.32 0 2 0 C1.01 3.96 0.02 7.92 -1 12 C-1.33 12 -1.66 12 -2 12 C-2.05422947 10.5629191 -2.09289723 9.12524538 -2.125 7.6875 C-2.14820313 6.88699219 -2.17140625 6.08648437 -2.1953125 5.26171875 C-2 3 -2 3 0 0 Z " fill="#4D88CB" transform="translate(135,161)"/>
<path d="M0 0 C0 0.33 0 0.66 0 1 C-1.76774419 1.53122363 -3.53934083 2.04964073 -5.3125 2.5625 C-6.29863281 2.85253906 -7.28476563 3.14257812 -8.30078125 3.44140625 C-11 4 -11 4 -14 3 C-9.43672206 -0.53286034 -5.50366792 -0.32374517 0 0 Z " fill="#4782C5" transform="translate(82,197)"/>
<path d="M0 0 C1.32 0.66 2.64 1.32 4 2 C3.401875 2.165 2.80375 2.33 2.1875 2.5 C-1.18527798 4.81276204 -1.8331548 8.19891337 -3 12 C-3.33 12 -3.66 12 -4 12 C-4.33292585 7.75519536 -4.43885872 5.64457375 -2 2.0625 C-1.34 1.381875 -0.68 0.70125 0 0 Z " fill="#558DC9" transform="translate(209,58)"/>
<path d="M0 0 C0.2475 0.515625 0.495 1.03125 0.75 1.5625 C2.39581616 4.77184151 4.1976096 7.87585664 6 11 C5.01 11.495 5.01 11.495 4 12 C4 11.34 4 10.68 4 10 C3.01 9.67 2.02 9.34 1 9 C-0.4783226 6.04335481 -0.06032783 3.25770263 0 0 Z " fill="#679DCC" transform="translate(48,144)"/>
<path d="M0 0 C2.42130331 2.42130331 2.52840504 3.80111377 3.125 7.125 C3.29257812 8.03507813 3.46015625 8.94515625 3.6328125 9.8828125 C3.81457031 10.93082031 3.81457031 10.93082031 4 12 C3.67 11.34 3.34 10.68 3 10 C2.34 10 1.68 10 1 10 C0.63720544 8.71073008 0.28503302 7.41846728 -0.0625 6.125 C-0.35833984 5.04605469 -0.35833984 5.04605469 -0.66015625 3.9453125 C-1 2 -1 2 0 0 Z " fill="#558BCA" transform="translate(44,132)"/>
<path d="M0 0 C0.66 0 1.32 0 2 0 C3.35439668 2.70879335 3.06501451 5.00933268 3 8 C0.9375 6.25 0.9375 6.25 -1 4 C-0.75 1.75 -0.75 1.75 0 0 Z " fill="#0A60BC" transform="translate(45,142)"/>
<path d="M0 0 C0.99 0.33 1.98 0.66 3 1 C2.67 1.99 2.34 2.98 2 4 C1.34 4 0.68 4 0 4 C0 4.66 0 5.32 0 6 C-0.66 6 -1.32 6 -2 6 C-2.33 5.01 -2.66 4.02 -3 3 C-2.01 2.01 -1.02 1.02 0 0 Z " fill="#0267C5" transform="translate(142,216)"/>
<path d="M0 0 C0.66 0.33 1.32 0.66 2 1 C0.75 3.5 0.75 3.5 -1 6 C-2.32 6 -3.64 6 -5 6 C-5 5.34 -5 4.68 -5 4 C-4.34 4 -3.68 4 -3 4 C-3 3.34 -3 2.68 -3 2 C-2.01 1.34 -1.02 0.68 0 0 Z " fill="#4488C9" transform="translate(193,33)"/>
<path d="M0 0 C2.97 0.495 2.97 0.495 6 1 C6 1.99 6 2.98 6 4 C5.01 4 4.02 4 3 4 C1.3125 2 1.3125 2 0 0 Z " fill="#4D8BCD" transform="translate(133,218)"/>
<path d="M0 0 C0.99 0.33 1.98 0.66 3 1 C4.1875 4.0625 4.1875 4.0625 5 7 C4.34 7.66 3.68 8.32 3 9 C2.01 6.03 1.02 3.06 0 0 Z " fill="#2A7DCA" transform="translate(128,168)"/>
<path d="M0 0 C0.66 0 1.32 0 2 0 C1.67 1.65 1.34 3.3 1 5 C0.01 5.33 -0.98 5.66 -2 6 C-1.125 1.125 -1.125 1.125 0 0 Z " fill="#016AD7" transform="translate(156,146)"/>
<path d="M0 0 C1.65 0.33 3.3 0.66 5 1 C4.01 2.485 4.01 2.485 3 4 C1.68 3.67 0.36 3.34 -1 3 C-0.67 2.01 -0.34 1.02 0 0 Z " fill="#2773C4" transform="translate(26,78)"/>
</svg>
